<svg width="50" height="50" viewBox="0 0 50 50" fill="none" xmlns="http://www.w3.org/2000/svg">
<path d="M49.4145 36.0899C47.4524 35.7256 45.973 37.0311 44.1205 35.0857C43.6364 34.5777 42.9372 34.8641 42.7154 35.4828C41.1254 39.923 37.8179 37.7778 36.3024 34.6678C36.0088 34.0657 35.1775 34.1179 34.8718 34.6678C33.8243 37.4098 31.8073 37.7475 28.8202 35.6808C28.3457 35.2368 27.5675 35.3862 27.3891 36.0851C26.0887 41.1823 21.5443 39.7819 20.1442 35.5934C20.0738 35.3824 19.9221 35.2801 19.7646 35.2617C19.4461 34.8352 18.7246 34.7073 18.476 35.3056C16.6851 39.6131 13.361 38.9538 11.292 35.3113C10.9185 34.654 10.1475 34.8819 9.90266 35.5057C8.16265 39.937 3.09264 39.8353 3.18292 34.5084C3.19283 33.9184 2.36743 33.8026 2.22785 34.3702C0.594732 41.0089 8.18623 42.1602 10.8159 37.2871C13.5322 40.5921 17.6053 41.2703 19.5479 36.8224C21.2051 41.7006 26.6188 42.6601 28.631 37.8062C31.1863 39.6329 33.6204 39.3459 35.5407 36.7507C37.8827 40.3286 42.0558 41.6467 43.9083 37.2317C45.6084 38.4627 46.7363 37.6015 49.1962 37.8125C50.1142 37.8916 50.324 36.2591 49.4145 36.0899Z" fill="#00B2A0"/>
<path d="M46.3743 43.4666C45.6119 44.9217 45.3484 46.2258 43.7152 46.937C41.705 47.8132 39.704 45.7226 38.7134 44.0085C38.3715 43.4169 37.5425 43.3032 37.2232 44.0085C35.8239 47.1004 32.7248 46.3454 31.4024 43.3614C31.0773 42.6274 29.9779 42.7584 29.8428 43.5982C29.0997 48.2238 25.7634 48.7134 23.5289 45.3607C23.7728 44.458 22.5005 43.8436 22.1537 44.7272C20.278 49.5066 16.616 48.9727 14.4906 44.7074C14.1217 43.9672 13.2953 44.2268 13.057 44.9251C11.3297 49.9885 8.63925 47.5798 7.12951 44.0945C6.83546 43.4154 5.99687 43.6506 5.81959 44.2934C4.99453 47.2869 3.63526 47.8459 1.3453 48.6203C0.914058 48.7664 0.980668 49.6358 1.4549 49.5624C4.07871 49.1561 5.51175 48.6138 6.58415 46.3439C8.78733 50.3406 11.8631 51.1569 13.9269 46.9515C16.603 50.8431 20.9019 51.2867 23.0318 46.6568C25.3977 50.3955 29.3654 50.2114 30.9542 46.1373C33.004 48.9462 35.9874 49.3408 38.0515 46.1974C41.1233 49.7853 47.4056 50.5884 47.6296 43.8624C47.6574 43.0602 46.7116 42.8225 46.3743 43.4666Z" fill="#00B2A0"/>
<path d="M15.3475 7.30014C14.7351 7.47298 14.4937 7.91886 14.5124 8.36904C10.1735 8.99084 7.36449 13.143 7.02924 17.3193C6.57077 23.0334 11.5751 26.39 17.0009 25.9637C22.5487 25.5282 26.1577 20.7169 25.9947 15.5462C25.8317 10.3815 20.7872 5.76205 15.3475 7.30014ZM16.2508 23.3515C12.2687 23.6684 9.69255 21.0602 9.7687 17.3193C9.84864 13.3985 12.9461 10.813 16.5368 9.77934C16.6025 9.76034 16.6499 9.72785 16.7033 9.69905C20.2036 10.2286 22.8508 11.5203 23.2227 15.5456C23.6088 19.721 20.4478 23.0169 16.2508 23.3515Z" fill="#00B2A0"/>
<path d="M9.86986 7.3313C9.32132 6.63795 8.7136 6.02876 8.09128 5.42759C7.47428 4.83135 6.81985 3.67771 5.94994 3.77205C5.48924 3.822 5.17715 4.16143 5.14504 4.70711C5.08401 5.74266 5.96294 6.25135 6.60224 6.77946C7.33309 7.38279 8.09234 7.92261 8.77065 8.60856C9.52327 9.37005 10.5532 8.19483 9.86986 7.3313Z" fill="#00B2A0"/>
<path d="M4.82685 10.4497C5.1193 10.4907 4.86082 10.4414 4.78359 10.4133C4.66497 10.3699 4.54873 10.3178 4.43276 10.266C4.3014 10.2077 4.17136 10.1448 4.04159 10.0819C4.03283 10.0776 4.02806 10.0755 4.01505 10.0687C3.89139 9.79275 3.67882 9.57047 3.40521 9.47089C2.91665 9.29239 2.17359 8.86602 1.64548 9.05871C1.34693 9.16784 1.03405 9.45486 0.97593 9.83653C0.97593 9.83653 0.975664 9.83807 0.975664 9.83869C0.920466 10.2003 0.94435 10.6708 1.2222 10.9223C1.37692 11.0617 1.55791 11.1603 1.74659 11.2454C1.59373 11.2448 1.71713 11.2531 1.8554 11.2904C1.95332 11.3296 2.04992 11.3697 2.15076 11.4008C2.39385 11.4958 2.63667 11.5923 2.87843 11.6906C3.01723 11.7476 3.16027 11.7526 3.29853 11.7236C3.79558 11.8771 4.33988 12.051 4.82711 12.0165C5.71295 11.9536 5.675 10.569 4.82685 10.4497Z" fill="#00B2A0"/>
<path d="M3.30907 19.2588C2.93701 19.6211 2.50285 19.905 2.07983 20.1772C1.86116 20.3181 1.63506 20.4639 1.40073 20.5666C1.26034 20.6279 1.03689 20.5765 1.34579 20.6421C1.1924 20.6098 1.04698 20.6064 0.894383 20.5873C-0.391911 20.426 -0.274878 23.1242 1.14304 22.7222C1.66531 22.5742 2.19899 21.9952 2.64297 21.6244C3.15807 21.1943 3.67237 20.7241 4.09698 20.1741C4.58236 19.5458 3.85601 18.7258 3.30907 19.2588Z" fill="#00B2A0"/>
<path d="M6.5866 24.6062C6.15085 25.3831 5.75358 26.1883 5.33905 26.9803C4.88977 27.8383 4.12866 28.478 4.02888 29.5047C3.96519 30.1601 4.58299 30.4847 5.03918 30.3987C5.97198 30.223 6.42711 28.8437 6.76812 27.9502C7.12001 27.0284 7.3363 26.0616 7.61813 25.1109C7.83468 24.3787 6.92178 24.0081 6.5866 24.6062Z" fill="#00B2A0"/>
<path d="M15.4028 27.3984C15.311 26.8499 14.581 26.8762 14.474 27.3984C14.1933 28.7712 13.8644 30.1323 13.5887 31.5064C13.5221 31.8381 13.5794 32.222 13.8058 32.4606C13.7686 32.4029 13.7729 32.4143 13.8183 32.4942C14.0882 33.0066 14.6553 32.948 14.935 32.4942C14.6794 32.9085 15.116 32.2935 15.1316 32.262C15.2346 32.0576 15.2434 31.8431 15.2542 31.6137C15.2771 31.1389 15.3251 30.6654 15.3641 30.1922C15.4408 29.2694 15.5568 28.3168 15.4028 27.3984Z" fill="#00B2A0"/>
<path d="M25.0976 28.2096C24.4301 27.0973 23.3702 26.3833 22.7636 25.2346C22.3482 24.4478 21.3971 25.1332 21.718 25.9446C21.9961 26.6478 22.421 27.2317 22.8596 27.8073C23.069 28.082 23.2834 28.3502 23.4676 28.6486C23.7189 29.0559 23.8222 29.5134 24.3121 29.5926C24.5939 29.6383 24.9155 29.5735 25.0578 29.2396C25.071 29.2088 25.0843 29.178 25.0973 29.1468C25.2189 28.8626 25.2656 28.4899 25.0976 28.2096Z" fill="#00B2A0"/>
<path d="M30.981 19.9104C29.8576 19.9792 28.734 20.0452 27.6107 20.1102C26.5998 20.1688 26.5998 21.8736 27.6107 21.9325C28.7343 21.9979 29.8576 22.0639 30.981 22.132C32.2145 22.2075 32.2145 19.8355 30.981 19.9104Z" fill="#00B2A0"/>
<path d="M30.9813 6.09895C29.9623 6.07429 29.1386 7.49614 28.5279 8.32206C27.8716 9.20933 27.295 10.1709 26.6259 11.0464C26.1148 11.7154 26.9027 12.6419 27.4725 12.0299C28.1471 11.3048 28.7596 10.5079 29.4071 9.751C29.7728 9.3237 30.1512 8.89332 30.5663 8.53046C31.0766 8.08498 31.4776 7.94039 31.7045 7.20141C31.873 6.65295 31.4394 6.11005 30.9813 6.09895Z" fill="#00B2A0"/>
<path d="M25.085 1.29629C24.4818 1.74579 24.0795 2.47583 23.6649 3.14328C23.1817 3.92142 22.7223 4.70325 22.1634 5.41294C21.5305 6.21666 22.5151 7.37307 23.1947 6.61097C23.7223 6.01905 24.1893 5.37379 24.6471 4.70911C25.1386 3.99571 25.7723 3.34244 26.1768 2.56431C26.5828 1.78371 25.7654 0.78946 25.085 1.29629Z" fill="#00B2A0"/>
<path d="M16.5483 0.226596C16.2543 -0.075532 15.8695 -0.075532 15.5755 0.226596C14.9983 0.819753 15.2644 1.85531 15.3125 2.64485C15.3677 3.55062 15.4269 4.45546 15.4977 5.36C15.5638 6.20349 16.56 6.20349 16.6261 5.36C16.697 4.45515 16.7561 3.55093 16.8113 2.64485C16.8594 1.85562 17.1255 0.819445 16.5483 0.226596Z" fill="#00B2A0"/>
</svg>
